<svg xmlns="http://www.w3.org/2000/svg" xmlns:xlink="http://www.w3.org/1999/xlink" viewBox="0 0 16 16"><defs><mask id="a" width="16" height="15.918" x="0" y=".041" maskUnits="userSpaceOnUse"><path fill="#fff" d="M11.482,15.933a1,1,0,0,0,.655-.073l3.3-1.585a1,1,0,0,0,.567-.9V2.626a1,1,0,0,0-.567-.9L12.137.139A1,1,0,0,0,11,.333L5.686,6.21l-3.1-2.544-.271-.233a.67.67,0,0,0-.6-.139.716.716,0,0,0-.089.03L.41,3.829A.666.666,0,0,0,0,4.394c0,.017,0,.033,0,.05v7.111c0,.017,0,.034,0,.05a.667.667,0,0,0,.408.566l1.211.5a.716.716,0,0,0,.089.03.67.67,0,0,0,.6-.139l.271-.233,3.1-2.544L11,15.666A.993.993,0,0,0,11.482,15.933ZM12,4.612,7.869,8,12,11.387ZM2,5.712,4.068,8,2,10.287Z"/></mask></defs><title>BrandVisualStudioIDEPreview2019_16x</title><path fill="#f6f6f6" d="M16,0V16H0V0Z" opacity="0"/><g mask="url(#a)"><path fill="#6c37a9" d="M2.167,3.658a.365.365,0,0,1,.416.008l-.271-.233a.666.666,0,0,0-.145-.094Z"/><path fill="#6c37a9" d="M.58,5.171A.334.334,0,0,0,0,5.4V10.6a.333.333,0,0,0,.58.224L2,9.266V6.733Z"/><path fill="#6c37a9" d="M2.167,12.341v.319a.666.666,0,0,0,.145-.094l.271-.233A.365.365,0,0,1,2.167,12.341Z"/><path fill="#793ebe" d="M9.8,1.665A.5.5,0,0,1,10.667,2V5.706L7.259,8.5,5.167,6.785Z"/><path fill="#793ebe" d="M3.616,8.5.671,11.758A.385.385,0,0,1,0,11.5v.055a.669.669,0,0,0,.41.616l1.211.5a.651.651,0,0,0,.339.046.668.668,0,0,0,.352-.155l.271-.233,2.584-2.118Z"/><path fill="#854cc7" d="M0,4.444a.666.666,0,0,1,.41-.615l1.211-.505a.669.669,0,0,1,.691.109l.271.233,8.084,6.628V14a.5.5,0,0,1-.871.335L.671,4.241A.385.385,0,0,0,0,4.5Z"/><path fill="#9b60e1" d="M12.137,15.86A1,1,0,0,1,11,15.666a.586.586,0,0,0,1-.414V.747a.586.586,0,0,0-1-.414A1,1,0,0,1,12.137.139l3.3,1.586a1,1,0,0,1,.567.9V13.374a1,1,0,0,1-.567.9Z"/></g></svg>